<?xml version="1.0" encoding="UTF-8" standalone="no"?>
<!-- Created with Inkscape (http://www.inkscape.org/) -->

<svg
   width="600"
   height="600"
   viewBox="0 0 158.75 158.75"
   version="1.1"
   id="svg1"
   xml:space="preserve"
   inkscape:version="1.3.2 (091e20e, 2023-11-25, custom)"
   sodipodi:docname="logo.svg"
   inkscape:export-filename="logo.png"
   inkscape:export-xdpi="96"
   inkscape:export-ydpi="96"
   xmlns:inkscape="http://www.inkscape.org/namespaces/inkscape"
   xmlns:sodipodi="http://sodipodi.sourceforge.net/DTD/sodipodi-0.dtd"
   xmlns="http://www.w3.org/2000/svg"
   xmlns:svg="http://www.w3.org/2000/svg"><sodipodi:namedview
     id="namedview1"
     pagecolor="#ffffff"
     bordercolor="#000000"
     borderopacity="0.25"
     inkscape:showpageshadow="2"
     inkscape:pageopacity="0.0"
     inkscape:pagecheckerboard="0"
     inkscape:deskcolor="#d1d1d1"
     inkscape:document-units="px"
     showguides="true"
     inkscape:zoom="0.99150695"
     inkscape:cx="171.96047"
     inkscape:cy="241.55151"
     inkscape:window-width="1920"
     inkscape:window-height="1001"
     inkscape:window-x="-9"
     inkscape:window-y="1410"
     inkscape:window-maximized="1"
     inkscape:current-layer="layer1" /><defs
     id="defs1" /><g
     inkscape:label="Layer 1"
     inkscape:groupmode="layer"
     id="layer1"><g
       style="fill:none;stroke:#fffa66;stroke-width:1.84449;stroke-linecap:round;stroke-linejoin:round;stroke-dasharray:none;stroke-opacity:1"
       id="g62"
       transform="matrix(6.9888913,0,0,7.3604657,-4.4916956,-8.9505884)"><polyline
         points="16 18 22 12 16 6"
         id="polyline1"
         style="stroke-width:1.84449;stroke-dasharray:none;stroke:#fffa66;fill:none;stroke-opacity:1" /><polyline
         points="8 6 2 12 8 18"
         id="polyline2"
         style="stroke-width:1.84449;stroke-dasharray:none;stroke:#fffa66;fill:none;stroke-opacity:1" /></g><path
       d="m 55.362468,67.680335 a 12.092888,11.725524 53.122184 0 0 -0.06627,23.755338 21.978494,21.310821 53.122301 0 1 0.06627,-23.755338 z"
       style="fill:#fffa66;fill-opacity:0.40000001;stroke-width:0.144661"
       id="path65" /><path
       d="m 72.286787,61.416525 a 18.111033,17.560848 50.265759 0 0 -0.01229,35.691946 26.619446,25.810787 50.265807 0 1 0.01229,-35.691946 z"
       style="fill:#fffa66;fill-opacity:0.69803923;stroke-width:0.144661"
       id="path64" /><path
       d="M 112.84856,73.104775 A 22.86518,22.17057 51.050217 0 0 107.40137,63.938822 22.86518,22.17057 51.050217 0 0 75.616528,62.915643 22.86518,22.17057 51.050217 1 0 112.84856,73.104775 Z"
       style="fill:#fffa66;stroke-width:0.144661;fill-opacity:1"
       id="path63" /></g></svg>
